<?xml version="1.0" encoding="utf-8"?>
<!-- Generator: Adobe Illustrator 28.0.0, SVG Export Plug-In . SVG Version: 6.00 Build 0)  -->
<svg version="1.1" id="Layer_1" xmlns="http://www.w3.org/2000/svg" xmlns:xlink="http://www.w3.org/1999/xlink" x="0px" y="0px"
	 viewBox="0 0 60 60" style="enable-background:new 0 0 60 60;" xml:space="preserve">
<style type="text/css">
	.st0{fill-rule:evenodd;clip-rule:evenodd;fill:#FFFFFF;}
</style>
<g>
	<path class="st0" d="M32.1,3.7c-1.4-0.3-2.8-0.3-4.2,0C26.4,4.1,25,5,21.4,7.6l-11.1,7.9c-2.7,1.9-3.7,2.6-4.4,3.6
		C5.2,20,4.7,21,4.4,22C4,23.1,4,24.4,4,27.6v14c0,2.9,0,5,0.1,6.7C4.3,50,4.5,51,5,51.8c0.8,1.6,2.2,3,3.8,3.8
		c0.8,0.4,1.9,0.7,3.5,0.8s3.7,0.1,6.7,0.1h22.2c2.9,0,5,0,6.7-0.1c1.6-0.1,2.7-0.4,3.5-0.8c1.6-0.8,3-2.2,3.8-3.8
		c0.4-0.8,0.7-1.9,0.8-3.5s0.1-3.7,0.1-6.7v-14c0-3.3,0-4.5-0.4-5.7c-0.3-1.1-0.8-2.1-1.5-2.9c-0.7-0.9-1.8-1.7-4.4-3.6L38.6,7.6
		C35,5.1,33.6,4.1,32.1,3.7z M27,0.4c1.9-0.5,4-0.5,5.9,0c2.2,0.6,4.2,2,7.3,4.2c0.1,0.1,0.2,0.1,0.3,0.2l11.1,7.9
		c0.1,0.1,0.2,0.1,0.2,0.2c2.4,1.7,3.8,2.7,4.9,4.1c1,1.2,1.7,2.6,2.1,4.1c0.5,1.7,0.5,3.5,0.5,6.4c0,0.1,0,0.2,0,0.3v14.1
		c0,2.8,0,5.1-0.1,6.9c-0.2,1.8-0.5,3.4-1.2,4.8c-1.2,2.3-3,4.1-5.3,5.3c-1.4,0.7-2.9,1-4.8,1.2C46.2,60,44,60,41.2,60H18.8
		c-2.8,0-5.1,0-6.9-0.1c-1.8-0.2-3.4-0.5-4.8-1.2c-2.3-1.2-4.1-3-5.3-5.3c-0.7-1.4-1-2.9-1.2-4.8c-0.1-1.8-0.1-4-0.1-6.9V27.6
		c0-0.1,0-0.2,0-0.3c0-2.9,0-4.7,0.5-6.4c0.4-1.5,1.2-2.9,2.1-4.1c1.1-1.4,2.6-2.4,4.9-4.1c0.1-0.1,0.2-0.1,0.2-0.2l11.1-7.9
		c0.1-0.1,0.2-0.1,0.3-0.2C22.9,2.3,24.8,0.9,27,0.4z"/>
	<path class="st0" d="M29.8,32.3c0.1,0,0.1,0,0.2,0s0.1,0,0.2,0c1.4,0,2.4,0,3.2,0.2c3.4,0.7,6.1,3.4,6.8,6.8
		c0.2,0.8,0.2,1.8,0.2,3.2c0,0.1,0,0.1,0,0.2v15.6c0,1-0.8,1.7-1.7,1.7c-1,0-1.7-0.8-1.7-1.7V42.7c0-1.7,0-2.3-0.1-2.7
		c-0.4-2.1-2-3.7-4.1-4.1c-0.5-0.1-1.1-0.1-2.7-0.1s-2.3,0-2.7,0.1c-2.1,0.4-3.7,2-4.1,4.1c-0.1,0.5-0.1,1.1-0.1,2.7v15.6
		c0,1-0.8,1.7-1.7,1.7c-1,0-1.7-0.8-1.7-1.7V42.7c0-0.1,0-0.1,0-0.2c0-1.4,0-2.4,0.2-3.2c0.7-3.4,3.4-6.1,6.8-6.8
		C27.4,32.3,28.4,32.3,29.8,32.3z"/>
</g>
</svg>
