<?xml version="1.0" encoding="utf-8"?>
<!-- Generator: Adobe Illustrator 28.0.0, SVG Export Plug-In . SVG Version: 6.00 Build 0)  -->
<svg version="1.1" id="Layer_1" xmlns="http://www.w3.org/2000/svg" xmlns:xlink="http://www.w3.org/1999/xlink" x="0px" y="0px"
	 viewBox="0 0 60 60" style="enable-background:new 0 0 60 60;" xml:space="preserve">
<style type="text/css">
	.st0{fill:#FFFFFF;}
</style>
<g>
	<path class="st0" d="M30,30c-8.3,0-15-6.7-15-15S21.7,0,30,0s15,6.7,15,15S38.3,30,30,30z M30,4.3c-5.9,0-10.7,4.8-10.7,10.7
		S24.1,25.7,30,25.7S40.7,20.9,40.7,15S35.9,4.3,30,4.3z M30,60c-6.6,0-13.2-0.6-19.7-1.8c-2.2-0.4-3.9-2.4-3.9-4.7
		c0-11.8,9.6-21.4,21.4-21.4h4.3c11.8,0,21.4,9.6,21.4,21.4l0,0c0,2.3-1.6,4.2-3.9,4.6C43.2,59.4,36.6,60,30,60z M27.9,36.4
		c-9.5,0-17.1,7.7-17.1,17.1c0,0.2,0.2,0.4,0.4,0.4c12.5,2.3,25.4,2.3,37.9,0c0.2,0,0.3-0.2,0.3-0.4l0,0c0-9.5-7.7-17.1-17.1-17.1
		H27.9z"/>
</g>
</svg>
