<?xml version="1.0" encoding="utf-8"?>
<!-- Generator: Adobe Illustrator 28.0.0, SVG Export Plug-In . SVG Version: 6.00 Build 0)  -->
<svg version="1.1" id="Layer_1" xmlns:serif="http://www.serif.com/"
	 xmlns="http://www.w3.org/2000/svg" xmlns:xlink="http://www.w3.org/1999/xlink" x="0px" y="0px" viewBox="0 0 60 60"
	 style="enable-background:new 0 0 60 60;" xml:space="preserve">
<style type="text/css">
	.st0{fill-rule:evenodd;clip-rule:evenodd;fill:#FFFFFF;}
</style>
<g transform="matrix(1,0,0,1,-432,-48)">
	<g>
		<path class="st0" d="M446.3,49.2c-0.8-0.8-1.8-1.2-2.8-1.2c-1.1,0-2.1,0.4-2.8,1.2c-1.4,1.4-3.4,3.4-5.1,5.1
			c-2.9,2.9-4.2,7.1-3.2,11.2l0,0c1.5,6.3,5.4,16.5,15.6,26.7s20.4,14.1,26.7,15.6l0,0c4,0.9,8.3-0.3,11.2-3.2
			c1.7-1.7,3.7-3.7,5.1-5.1c0.8-0.8,1.2-1.8,1.2-2.8s-0.4-2.1-1.2-2.8c-2.6-2.6-7.1-7.1-9.6-9.6c-1.6-1.6-4.1-1.6-5.7,0l-6,6
			c-0.4,0.4-1.1,0.5-1.6,0.2c-2.2-1.4-6-4.1-10.1-8.1c-4-4-6.7-7.9-8.1-10c-0.3-0.5-0.2-1.2,0.2-1.6l0,0c1.6-1.6,4.2-4.2,6-6l0,0
			c1.6-1.6,1.6-4.1,0-5.7L446.3,49.2z M444.4,51.1l9.6,9.6c0.5,0.5,0.5,1.4,0,1.9c-1.8,1.8-4.4,4.4-6,6c-1.3,1.3-1.5,3.3-0.6,4.9
			l0,0c1.4,2.2,4.3,6.3,8.5,10.5s8.3,7.1,10.5,8.5l0,0c1.6,0.9,3.6,0.7,4.9-0.6l6-6c0.5-0.5,1.4-0.5,1.9,0l9.6,9.6
			c0.3,0.3,0.4,0.6,0.4,0.9s-0.1,0.7-0.4,0.9l0,0c-1.4,1.4-3.3,3.3-5.1,5.1l0,0c-2.3,2.3-5.6,3.2-8.7,2.5c-6-1.4-15.7-5.1-25.4-14.8
			c-9.7-9.7-13.4-19.4-14.9-25.4c-0.7-3.1,0.3-6.4,2.5-8.7l5.1-5.1c0.3-0.3,0.6-0.4,0.9-0.4C443.8,50.7,444.1,50.8,444.4,51.1z"/>
	</g>
</g>
</svg>
