<svg width="24" height="24" viewBox="0 0 24 24" fill="none" xmlns="http://www.w3.org/2000/svg">
<path fill-rule="evenodd" clip-rule="evenodd" d="M11.444 22.0007H5.111C3.945 22.0007 3 21.0557 3 19.8897V9.33366C3 8.16766 3.945 7.22266 5.111 7.22266H11.444C12.61 7.22266 13.555 8.16766 13.555 9.33366V19.8897C13.556 21.0557 12.61 22.0007 11.444 22.0007Z" fill="#3EAEFF" fill-opacity="0.4" stroke="#3EAEFF" stroke-width="1.5" stroke-linecap="round" stroke-linejoin="round"/>
<path fill-rule="evenodd" clip-rule="evenodd" d="M9.75195 7.22251L10.731 3.56551C11.033 2.43951 12.191 1.77051 13.317 2.07251L19.434 3.71151C20.56 4.01351 21.229 5.17051 20.927 6.29751L18.195 16.4935C17.893 17.6195 16.736 18.2885 15.61 17.9865L13.555 17.4365" fill="#3EAEFF" fill-opacity="0.4"/>
<path d="M9.75195 7.22251L10.731 3.56551C11.033 2.43951 12.191 1.77051 13.317 2.07251L19.434 3.71151C20.56 4.01351 21.229 5.17051 20.927 6.29751L18.195 16.4935C17.893 17.6195 16.736 18.2885 15.61 17.9865L13.555 17.4365" stroke="#3EAEFF" stroke-width="1.5" stroke-linecap="round" stroke-linejoin="round"/>
</svg>
